<?xml version="1.0" encoding="UTF-8"?>
<svg version="1.1" xmlns="http://www.w3.org/2000/svg" width="457" height="109">
<path d="M0 0 C29.7 0 59.4 0 90 0 C90 36.632 90 36.632 85.53515625 41.64453125 C80.23477534 45.84828162 76.42122059 46.13010607 69.75 46.5625 C68.48671875 46.64628906 67.2234375 46.73007813 65.921875 46.81640625 C64.95765625 46.87699219 63.9934375 46.93757813 63 47 C63.81791016 47.81267334 64.63582031 48.62534668 65.47851562 49.46264648 C68.50006626 52.46615541 71.5183539 55.47292493 74.53564453 58.48071289 C75.84431998 59.78434621 77.15388968 61.08708243 78.46435547 62.38891602 C80.34315652 64.25564616 82.21876304 66.12553368 84.09375 67.99609375 C84.97963806 68.87423988 84.97963806 68.87423988 85.88342285 69.77012634 C87.27472334 71.16123243 88.64028531 72.57800523 90 74 C90 74.33 90 74.66 90 75 C81.97049849 77.02855257 73.88968986 77.90893359 66 75 C59.85247037 70.71887411 55.03828799 64.64061673 50.11010742 59.06616211 C41.16268043 48.71853286 41.16268043 48.71853286 28.45458984 44.62573242 C24.28099987 44.78757589 20.13910463 45.44066154 16 46 C16 55.57 16 65.14 16 75 C10.72 75 5.44 75 0 75 C0 60.15 0 45.3 0 30 C5.01832031 29.96261719 10.03664063 29.92523438 15.20703125 29.88671875 C18.38349811 29.8564478 21.55990833 29.82530584 24.73632812 29.79101562 C29.77967512 29.73665477 34.82291006 29.68554666 39.86645508 29.65356445 C43.93204845 29.62758205 47.99726638 29.58721627 52.06262779 29.53681374 C53.61473615 29.52011058 55.1669095 29.50861781 56.71909523 29.50238609 C58.89101273 29.49278202 61.06196228 29.4647697 63.23364258 29.43237305 C65.08896355 29.41571846 65.08896355 29.41571846 66.98176575 29.39872742 C69.94134782 29.22474906 69.94134782 29.22474906 71.87992859 27.79719543 C73.35250188 25.43439788 73.5078215 23.57954889 73.6875 20.8125 C73.75324219 19.91144531 73.81898438 19.01039062 73.88671875 18.08203125 C73.92410156 17.39496094 73.96148437 16.70789063 74 16 C73.22627548 16.00888245 72.45255096 16.01776489 71.65538025 16.0269165 C64.34367236 16.10725205 57.03218017 16.16806005 49.72014523 16.20724869 C45.9614311 16.22807378 42.20308337 16.256297 38.44458008 16.30175781 C34.81355276 16.34539908 31.1828766 16.36917526 27.55160713 16.37950897 C26.17016641 16.3868678 24.78874369 16.40123787 23.40745354 16.42292023 C9.931349 16.62593608 9.931349 16.62593608 4 12 C2.44140625 10 2.44140625 10 1.5625 8 C1.25441406 7.34 0.94632812 6.68 0.62890625 6 C0 4 0 4 0 0 Z " fill="#FFFFFF" transform="translate(263,33)"/>
<path d="M0 0 C29.37 0 58.74 0 89 0 C87.18744667 4.53138332 86.01965482 6.39558291 82.8125 9.8125 C81.60013672 11.12154297 81.60013672 11.12154297 80.36328125 12.45703125 C79.58339844 13.29621094 78.80351562 14.13539062 78 15 C76.82714939 16.32789696 75.65992079 17.66079403 74.5 19 C71.10746907 22.89512811 67.64805799 26.72782763 64.1875 30.5625 C62.27445851 32.69417481 60.38112388 34.8401911 58.5 37 C55.1801713 40.81165518 51.79878862 44.56551705 48.40625 48.3125 C45.24033128 51.84846117 42.11967645 55.42324435 39 59 C40.20011719 58.99363525 41.40023437 58.98727051 42.63671875 58.98071289 C47.11752699 58.96621088 51.59706346 58.99774501 56.07763672 59.04272461 C58.01151182 59.05581098 59.94551219 59.05664767 61.87939453 59.04467773 C80.03806898 58.94644688 80.03806898 58.94644688 85.25 63.43359375 C88.87417337 67.57065237 89 69.07467674 89 75 C59.63 75 30.26 75 0 75 C3.74149762 70.63491945 7.3236035 66.55282338 11.36279297 62.52368164 C11.86110123 62.02522736 12.35940948 61.52677307 12.87281799 61.01321411 C14.49357804 59.39314159 16.11783281 57.77662388 17.7421875 56.16015625 C18.87726406 55.02694801 20.01211763 53.89351638 21.14675903 52.75987244 C24.11350744 49.79691665 27.08324802 46.83697807 30.0536499 43.87768555 C33.0922886 40.84933144 36.12804909 37.81809501 39.1640625 34.78710938 C45.1065826 28.85526911 51.052271 22.92661739 57 17 C56.43703217 16.99413376 55.87406433 16.98826752 55.29403687 16.98222351 C49.42112064 16.918163 43.548746 16.83371096 37.67626953 16.73754883 C35.48623812 16.7043469 33.29612211 16.6763003 31.10595703 16.65356445 C27.9530847 16.61993191 24.80098427 16.56761052 21.6484375 16.51171875 C20.67321136 16.50532883 19.69798523 16.4989389 18.69320679 16.49235535 C13.39895041 16.3785094 9.55815696 15.99373141 5 13 C0.68415609 8.21757837 0 6.69479525 0 0 Z " fill="#FFFFFF" transform="translate(56,33)"/>
<path d="M0 0 C29.7 0 59.4 0 90 0 C90 14.85 90 29.7 90 45 C89.67 45.33 89.34 45.66 89 46 C84.05 46 79.1 46 74 46 C74 36.1 74 26.2 74 16 C54.86 16 35.72 16 16 16 C16 25.57 16 35.14 16 45 C15.505 45.495 15.505 45.495 15 46 C10.05 46 5.1 46 0 46 C0 30.82 0 15.64 0 0 Z " fill="#FFFFFF" transform="translate(367,33)"/>
<path d="M0 0 C0 35.97 0 71.94 0 109 C-6.27 109 -12.54 109 -19 109 C-20.74292177 107.25707823 -20.11980303 104.99376505 -20.12442017 102.67175293 C-20.12082489 101.90858765 -20.11722961 101.14542236 -20.11352539 100.35913086 C-20.11367142 99.55919205 -20.11381744 98.75925323 -20.1139679 97.93507385 C-20.11326855 95.27830335 -20.10547518 92.62160207 -20.09765625 89.96484375 C-20.09579215 88.12781309 -20.09436821 86.29078194 -20.09336853 84.45375061 C-20.08954275 79.60890338 -20.07971196 74.76408592 -20.06866455 69.91925049 C-20.05845172 64.97937422 -20.05387119 60.03949315 -20.04882812 55.09960938 C-20.03808974 45.39972437 -20.02049246 35.69986931 -20 26 C-25.28 26 -30.56 26 -36 26 C-30.36261128 20.36261128 -30.36261128 20.36261128 -27.50390625 18.203125 C-26.86912354 17.72327148 -26.23434082 17.24341797 -25.58032227 16.74902344 C-24.91444092 16.2543457 -24.24855957 15.75966797 -23.5625 15.25 C-22.86890381 14.73211914 -22.17530762 14.21423828 -21.46069336 13.68066406 C-2.94128365 0 -2.94128365 0 0 0 Z " fill="#FFFFFF" transform="translate(37,0)"/>
<path d="M0 0 C0.82862045 0.00359528 1.65724091 0.00719055 2.51097107 0.01089478 C3.81329178 0.01067574 3.81329178 0.01067574 5.141922 0.01045227 C8.02594967 0.01115171 10.9099136 0.01894554 13.79393005 0.02676392 C15.78790247 0.02862799 17.78187535 0.03005194 19.77584839 0.03105164 C25.03498082 0.03487769 30.29408583 0.04470871 35.5532074 0.05575562 C40.91534555 0.06596786 46.27748811 0.07054885 51.63963318 0.07559204 C62.16894213 0.0863309 72.69823069 0.10340837 83.2275238 0.12442017 C83.43725822 5.49511938 82.62920056 7.87232422 79.2275238 12.12442017 C74.9346559 15.89694044 71.34050317 16.25482791 65.73997498 16.30142212 C64.75891029 16.31127892 64.75891029 16.31127892 63.75802612 16.32133484 C61.5955137 16.34103031 59.4330706 16.35272198 57.27049255 16.36270142 C56.16053138 16.36881471 56.16053138 16.36881471 55.02814674 16.3750515 C51.11145432 16.39589627 47.19479677 16.41020483 43.27806091 16.41958618 C39.23951608 16.43064735 35.20152272 16.46504776 31.16317272 16.50475788 C28.05155434 16.53094304 24.94006702 16.53927966 21.82834816 16.54286766 C20.34003792 16.54772876 18.85173335 16.5593293 17.36353111 16.57790565 C15.27633207 16.60233956 13.19055546 16.60132552 11.10325623 16.59439087 C9.32479561 16.60319023 9.32479561 16.60319023 7.51040649 16.61216736 C2.4693017 15.86319612 -0.59445786 13.33427684 -4.0849762 9.74942017 C-5.9857586 6.79264753 -6.53461266 4.61308538 -6.7724762 1.12442017 C-4.95008957 -0.69796646 -2.42491537 0.0044432 0 0 Z " fill="#FFFFFF" transform="translate(165.77247619628906,32.875579833984375)"/>
<path d="M0 0 C29.7 0 59.4 0 90 0 C89 8 89 8 86.875 10.8125 C79.15376178 16.68735517 72.01681088 16.46045187 62.59765625 16.43359375 C61.19192759 16.43816222 59.78620115 16.44346976 58.38047791 16.44947815 C55.44276828 16.45838241 52.50533089 16.45601716 49.56762695 16.44604492 C45.82074812 16.43455922 42.07481233 16.45477297 38.32805729 16.48396206 C35.42734402 16.50239282 32.52685391 16.50201805 29.62609673 16.49632454 C28.24552526 16.49617216 26.86493785 16.50214717 25.48442268 16.51461601 C17.5915213 16.57587179 11.67884055 16.42390876 5 12 C1.39347311 7.74614778 0.95352439 5.72114634 0 0 Z " fill="#FFFFFF" transform="translate(159,63)"/>
<path d="M0 0 C1.02473671 -0.0098568 1.02473671 -0.0098568 2.07017517 -0.01991272 C4.33552152 -0.0396543 6.60080149 -0.05131139 8.86621094 -0.0612793 C9.64019981 -0.06535482 10.41418869 -0.06943035 11.21163177 -0.07362938 C15.30986769 -0.09449582 19.40807009 -0.10879387 23.50634766 -0.11816406 C27.73436005 -0.12921756 31.96184454 -0.16360301 36.18967056 -0.20333576 C39.44454915 -0.22951754 42.69930241 -0.23785735 45.95427704 -0.24144554 C47.51236274 -0.2463091 49.07044293 -0.25791664 50.6284256 -0.27648354 C52.81390297 -0.30090516 54.99802091 -0.29990515 57.18359375 -0.29296875 C59.04652069 -0.30176811 59.04652069 -0.30176811 60.94708252 -0.31074524 C65.93760227 0.40443312 69.12442375 2.57030667 72.16308594 6.55200195 C73.35058594 9.17700195 73.35058594 9.17700195 74.35058594 15.17700195 C44.65058594 15.17700195 14.95058594 15.17700195 -15.64941406 15.17700195 C-14.52178953 7.2836302 -14.52178953 7.2836302 -11.71191406 4.30200195 C-11.18726563 3.72708008 -10.66261719 3.1521582 -10.12207031 2.55981445 C-6.98606039 -0.38487391 -4.17304474 0.03316221 0 0 Z " fill="#FFFFFF" transform="translate(382.6494140625,92.822998046875)"/>
<path d="M0 0 C29.7 0 59.4 0 90 0 C88.93447307 7.45868849 88.80731527 8.19268473 84 13 C80.50314223 15.29669593 77.44874728 15.26422401 73.32299805 15.29052734 C72.66066162 15.29724457 71.9983252 15.30396179 71.31591797 15.31088257 C69.13110808 15.32984505 66.94660577 15.33378606 64.76171875 15.3359375 C63.23720678 15.34236757 61.71269604 15.34909609 60.18818665 15.35610962 C56.99302308 15.36807864 53.7979676 15.37179093 50.6027832 15.37060547 C46.5206076 15.37040251 42.43912997 15.39768198 38.35711956 15.43214989 C35.20769609 15.45445708 32.05843944 15.45844182 28.90894508 15.45738602 C27.40472831 15.4597371 25.90050659 15.46853285 24.39636803 15.48405075 C9.75514705 15.62093653 9.75514705 15.62093653 4 11 C0.97331441 7.16619825 0.85341586 5.12049518 0 0 Z " fill="#FFFFFF" transform="translate(159,93)"/>
<path d="M0 0 C0 7.92 0 15.84 0 24 C-1.65 24 -3.3 24 -5 24 C-5 18.39 -5 12.78 -5 7 C-6.32 6.67 -7.64 6.34 -9 6 C-7.68969568 4.99712471 -6.37669473 3.99777175 -5.0625 3 C-4.33160156 2.443125 -3.60070312 1.88625 -2.84765625 1.3125 C-1 0 -1 0 0 0 Z " fill="#FFFFFF" transform="translate(414,58)"/>
</svg>
