<svg width="611" height="490" viewBox="0 0 611 490" fill="none" xmlns="http://www.w3.org/2000/svg">
<g clip-path="url(#clip0_721_1803)">
<path d="M15.1797 488.38C15.1797 489.04 15.7097 489.57 16.3697 489.57H609.63C610.29 489.57 610.82 489.04 610.82 488.38C610.82 487.72 610.29 487.19 609.63 487.19H16.3697C15.7097 487.19 15.1797 487.72 15.1797 488.38Z" fill="#2F2E43"/>
<path d="M322.818 370.945C321.19 380.819 312.597 388.376 302.269 388.376C291.941 388.376 283.349 380.819 281.72 370.945H229.146V484.881H375.392V370.945L322.818 370.945Z" fill="#B6B3C5"/>
<path d="M246.152 484.455H231.697V487.006H246.152V484.455Z" fill="#B6B3C5"/>
<path d="M374.117 484.881H359.662V487.432H374.117V484.881Z" fill="#B6B3C5"/>
<path d="M596.385 373.921H8.15307C3.65742 373.921 0 370.263 0 365.768V30.0642C0 25.5688 3.65742 21.9111 8.15307 21.9111H596.385C600.88 21.9111 604.538 25.5688 604.538 30.0642V365.768C604.538 370.263 600.88 373.921 596.385 373.921Z" fill="#2F2E41"/>
<path d="M590.509 36.3662H14.8799V361.167H590.509V36.3662Z" fill="sea-salt"/>
<path d="M522.121 161.103H490.711C487.982 161.103 485.762 158.882 485.762 156.153C485.762 153.423 487.982 151.203 490.711 151.203H522.121C524.85 151.203 527.071 153.423 527.071 156.153C527.071 158.882 524.85 161.103 522.121 161.103Z" fill="#D1D1D2"/>
<path d="M558.242 161.103H543.584C540.855 161.103 538.635 158.882 538.635 156.153C538.635 153.423 540.855 151.203 543.584 151.203H558.242C560.971 151.203 563.192 153.423 563.192 156.153C563.192 158.882 560.971 161.103 558.242 161.103Z" fill="#D1D1D2"/>
<path d="M207.647 164.883H112.043C107.163 164.883 103.192 160.912 103.192 156.032C103.192 151.151 107.163 147.181 112.043 147.181H207.647C212.528 147.181 216.498 151.151 216.498 156.032C216.498 160.912 212.528 164.883 207.647 164.883Z" fill="#1D5745"/>
<path d="M155.813 188.496H109.739C106.764 188.496 104.344 186.075 104.344 183.101C104.344 180.125 106.764 177.705 109.739 177.705H155.813C158.788 177.705 161.208 180.125 161.208 183.101C161.208 186.075 158.788 188.496 155.813 188.496Z" fill="#D1D1D2"/>
<path d="M409.797 209.806H108.588C105.613 209.806 103.192 207.385 103.192 204.41C103.192 201.435 105.613 199.015 108.588 199.015H409.797C412.772 199.015 415.192 201.435 415.192 204.41C415.192 207.385 412.772 209.806 409.797 209.806Z" fill="#D1D1D2"/>
<path d="M383.88 224.204H108.588C105.613 224.204 103.192 221.783 103.192 218.808C103.192 215.833 105.613 213.413 108.588 213.413H383.88C386.855 213.413 389.276 215.833 389.276 218.808C389.276 221.783 386.855 224.204 383.88 224.204Z" fill="#D1D1D2"/>
</g>
<defs>
<clipPath id="clip0_721_1803">
<rect width="610.82" height="489.571" fill="sea-salt"/>
</clipPath>
</defs>
</svg>
